<?xml version="1.0" encoding="UTF-8"?>
<svg width="694px" height="497px" viewBox="0 0 694 497" version="1.1" xmlns="http://www.w3.org/2000/svg" xmlns:xlink="http://www.w3.org/1999/xlink">
    <!-- Generator: Sketch 49.3 (51167) - http://www.bohemiancoding.com/sketch -->
    <title>Untitled-1</title>
    <desc>Created with Sketch.</desc>
    <defs></defs>
    <g id="Page-1" stroke="none" stroke-width="1" fill="none" fill-rule="evenodd">
        <g id="Page-05" transform="translate(-989.000000, -2808.000000)" fill-rule="nonzero">
            <g id="Untitled-1" transform="translate(989.000000, 2808.000000)">
                <g id="Group" transform="translate(0.000000, 122.375427)">
                    <g transform="translate(173.500000, 0.000000)" id="Shape">
                        <path d="M63.2764706,263.956997 L6.29362745,330.753584 C-1.19068627,339.591809 -0.510294118,352.849147 8.16470588,360.667577 C14.6284314,366.616382 24.1539216,368.146075 32.1485294,364.23686 C61.2352941,350.299659 127.913725,317.836177 126.552941,315.626621 C125.532353,313.926962 110.563725,288.09215 98.4867647,267.186348 C90.8323529,254.268942 72.9720588,252.569283 63.2764706,263.956997 Z" fill="#ECECEC"></path>
                        <path d="M166.015686,327.1843 L36.2308824,369.505802 C24.3240196,373.415017 11.5666667,366.956314 7.65441176,355.058703 C3.74215686,343.161092 10.2058824,330.413652 22.1127451,326.504437 L151.897549,284.182935 C163.804412,280.27372 176.561765,286.732423 180.47402,298.630034 C184.386275,310.527645 177.922549,323.275085 166.015686,327.1843 Z" fill="#FCC49E"></path>
                        <path d="M299.882843,263.956997 L356.865686,330.753584 C364.35,339.591809 363.669608,352.849147 354.994608,360.667577 C348.530882,366.616382 339.005392,368.146075 331.010784,364.23686 C301.92402,350.299659 235.245588,317.836177 236.606373,315.626621 C237.626961,313.926962 252.595588,288.09215 264.672549,267.186348 C272.156863,254.268942 290.187255,252.569283 299.882843,263.956997 Z" fill="#ECECEC"></path>
                        <path d="M197.143627,327.1843 L326.928431,369.505802 C338.835294,373.415017 351.592647,366.956314 355.504902,355.058703 C359.417157,343.161092 352.953431,330.413652 341.046569,326.504437 L211.261765,284.182935 C199.354902,280.27372 186.597549,286.732423 182.685294,298.630034 C178.602941,310.527645 185.236765,323.275085 197.143627,327.1843 Z" fill="#FCC49E"></path>
                        <path d="M268.754902,274.494881 L103.419608,271.095563 L103.419608,249.849829 C103.419608,215.176792 138.629902,182.883276 173.329902,182.883276 L199.354902,182.883276 C230.142647,182.883276 268.584804,215.516724 268.584804,246.280546 L268.584804,274.494881 L268.754902,274.494881 Z" fill="#ECECEC"></path>
                        <g transform="translate(110.563725, 0.000000)">
                            <path d="M87.2602941,143.791126 L62.9362745,143.791126 C58.0034314,143.791126 54.0911765,147.700341 54.0911765,152.629352 L54.0911765,190.701706 C54.0911765,202.259386 63.4465686,211.777474 75.1833333,211.777474 C86.75,211.777474 96.2754902,202.429352 96.2754902,190.701706 L96.2754902,152.629352 C96.1053922,147.700341 92.1931373,143.791126 87.2602941,143.791126 Z" fill="#FCC49E"></path>
                            <path d="M54.0911765,182.883276 C54.0911765,182.883276 55.7921569,195.290785 75.1833333,195.290785 C94.5745098,195.290785 96.2754902,182.883276 96.2754902,182.883276 L54.0911765,182.883276 Z" fill="#F9AD80"></path>
                            <path d="M15.8191176,83.2832765 C7.14411765,83.2832765 0.170098039,90.5918089 0.170098039,99.6 C0.170098039,108.608191 7.14411765,115.916724 15.8191176,115.916724 C24.4941176,115.916724 31.4681373,108.608191 31.4681373,99.6 C31.6382353,90.5918089 24.4941176,83.2832765 15.8191176,83.2832765 Z" fill="#F9AD80"></path>
                            <path d="M134.547549,83.2832765 C125.872549,83.2832765 118.898529,90.5918089 118.898529,99.6 C118.898529,108.608191 125.872549,115.916724 134.547549,115.916724 C143.222549,115.916724 150.196569,108.608191 150.196569,99.6 C150.366667,90.5918089 143.222549,83.2832765 134.547549,83.2832765 Z" fill="#F9AD80"></path>
                            <path d="M70.2504902,186.962457 C71.7813725,187.132423 73.4823529,187.302389 75.0132353,187.302389 C79.9460784,187.302389 84.8789216,186.622526 89.4715686,185.432765 C89.4715686,185.432765 89.4715686,185.262799 89.4715686,185.262799 C115.156373,178.464164 134.207353,154.32901 134.207353,125.604778 L134.207353,53.5392491 C134.207353,19.5460751 107.672059,24.9849829 75.0132353,24.9849829 C42.3544118,24.9849829 15.8191176,19.5460751 15.8191176,53.5392491 L15.8191176,125.604778 C15.8191176,157.898294 39.8029412,184.412969 70.2504902,186.962457 Z" fill="#FCC49E"></path>
                            <path d="M122.470588,101.979522 L122.470588,121.525597 L101.378431,121.525597 C101.378431,121.525597 96.1053922,107.41843 75.0132353,107.41843 C53.9210784,107.41843 48.6480392,121.525597 48.6480392,121.525597 L27.5558824,121.525597 L27.5558824,101.979522 C27.5558824,94.331058 20.4117647,91.78157 15.6490196,90.9317406 L15.6490196,125.604778 C15.6490196,157.898294 39.6328431,184.412969 70.0803922,186.962457 L69.9102941,187.132423 C71.6112745,187.302389 73.1421569,187.302389 74.8431373,187.302389 C76.5441176,187.302389 78.075,187.132423 79.7759804,187.132423 L79.9460784,186.962457 C110.393627,184.412969 134.377451,157.898294 134.377451,125.604778 L134.377451,90.9317406 C129.614706,91.78157 122.470588,94.331058 122.470588,101.979522 Z" fill="#1D1D1B"></path>
                            <g transform="translate(90.151961, 69.686007)" fill="#010101">
                                <path d="M12.2470588,13.5972696 C12.2470588,15.9767918 10.3759804,17.8464164 8.16470588,17.8464164 C5.95343137,17.8464164 4.08235294,15.9767918 4.08235294,13.5972696 C4.08235294,11.2177474 5.95343137,9.34812287 8.16470588,9.34812287 C10.3759804,9.34812287 12.2470588,11.2177474 12.2470588,13.5972696 Z"></path>
                                <path d="M15.9892157,6.79863481 L1.53088235,6.79863481 C0.680392157,6.79863481 0,6.11877133 0,5.26894198 L0,1.52969283 C0,0.679863481 0.680392157,0 1.53088235,0 L15.9892157,0 C16.8397059,0 17.520098,0.679863481 17.520098,1.52969283 L17.520098,5.26894198 C17.520098,6.11877133 16.8397059,6.79863481 15.9892157,6.79863481 Z"></path>
                            </g>
                            <path d="M53.4107843,131.553584 L94.4044118,131.553584 C94.4044118,131.553584 90.8323529,145.490785 73.822549,145.490785 C56.9828431,145.490785 53.4107843,131.553584 53.4107843,131.553584 Z" fill="#E6E6E5"></path>
                            <path d="M79.9460784,175.74471 C78.4151961,175.914676 76.7142157,176.084642 75.1833333,176.084642 C73.4823529,176.084642 71.9514706,175.914676 70.2504902,175.914676 L70.4205882,175.74471 C39.9730392,173.195222 15.9892157,146.680546 15.9892157,114.387031 L15.9892157,125.774744 C15.9892157,158.068259 39.9730392,184.582935 70.4205882,187.132423 L70.2504902,187.302389 C71.9514706,187.472355 73.4823529,187.472355 75.1833333,187.472355 C76.8843137,187.472355 78.4151961,187.302389 80.1161765,187.302389 L79.9460784,186.962457 C110.393627,184.412969 134.377451,157.898294 134.377451,125.604778 L134.377451,114.217065 C134.377451,146.680546 110.393627,173.025256 79.9460784,175.74471 Z" fill="#131312"></path>
                            <g transform="translate(40.823529, 69.686007)" fill="#010101">
                                <path d="M12.927451,13.5972696 C12.927451,15.9767918 11.0563725,17.8464164 8.84509804,17.8464164 C6.63382353,17.8464164 4.7627451,15.9767918 4.7627451,13.5972696 C4.7627451,11.2177474 6.63382353,9.34812287 8.84509804,9.34812287 C11.0563725,9.34812287 12.927451,11.2177474 12.927451,13.5972696 Z"></path>
                                <path d="M16.6696078,6.79863481 L2.21127451,6.79863481 C1.36078431,6.79863481 0.680392157,6.11877133 0.680392157,5.26894198 L0.680392157,1.52969283 C0.680392157,0.679863481 1.36078431,0 2.21127451,0 L16.6696078,0 C17.520098,0 18.2004902,0.679863481 18.2004902,1.52969283 L18.2004902,5.26894198 C18.2004902,6.11877133 17.520098,6.79863481 16.6696078,6.79863481 Z"></path>
                            </g>
                            <path d="M118.728431,1.18976109 C102.569118,-1.01979522 77.2245098,-1.35972696 58.8539216,13.7672355 C58.3436275,14.1071672 58.0034314,14.447099 57.6632353,14.9569966 L43.0348039,14.9569966 C28.0661765,14.9569966 15.8191176,25.6648464 15.8191176,38.7522184 L15.8191176,52.1795222 L15.8191176,82.9433447 L15.8191176,120.335836 C18.5406863,120.335836 20.9220588,117.956314 20.9220588,115.066894 L20.9220588,62.5474403 C20.9220588,62.5474403 21.772549,45.890785 36.9112745,45.890785 L71.4411765,45.890785 L71.7813725,45.890785 L111.07402,45.890785 C127.233333,45.890785 129.104412,60.5078498 129.444608,62.3774744 L129.444608,115.23686 C129.444608,118.12628 131.655882,120.505802 134.547549,120.505802 L134.547549,83.1133106 L134.547549,52.3494881 L134.547549,40.4518771 L134.717647,19.8860068 C134.717647,10.3679181 127.913725,2.54948805 118.728431,1.18976109 Z" fill="#1D1D1B"></path>
                            <path d="M80.7965686,96.8805461 L66.8485294,96.8805461 C63.9568627,96.8805461 61.5754902,99.2600683 61.5754902,102.149488 C61.5754902,105.038908 63.9568627,107.41843 66.8485294,107.41843 L80.7965686,107.41843 C83.6882353,107.41843 86.0696078,105.038908 86.0696078,102.149488 C86.0696078,99.2600683 83.6882353,96.8805461 80.7965686,96.8805461 Z" fill="#F9AD80"></path>
                        </g>
                        <g transform="translate(39.122549, 222.655290)">
                            <path d="M279.471078,148.380205 L10.5460784,148.380205 C5.10294118,148.380205 0.680392157,143.961092 0.680392157,138.522184 C0.680392157,133.083276 5.10294118,128.664164 10.5460784,128.664164 L279.471078,128.664164 C284.914216,128.664164 289.336765,133.083276 289.336765,138.522184 C289.336765,143.961092 284.914216,148.380205 279.471078,148.380205 Z" fill="#272626"></path>
                            <path d="M250.384314,148.380205 L42.8647059,148.380205 C34.1897059,148.380205 27.2156863,141.411604 27.2156863,132.743345 L27.2156863,16.4866894 C27.2156863,7.81843003 34.1897059,0.849829352 42.8647059,0.849829352 L250.384314,0.849829352 C259.059314,0.849829352 266.033333,7.81843003 266.033333,16.4866894 L266.033333,132.743345 C265.863235,141.411604 258.889216,148.380205 250.384314,148.380205 Z" fill="#333232"></path>
                            <path d="M144.923529,92.8013652 C134.887745,92.8013652 126.723039,84.6430034 126.723039,74.6150171 C126.723039,64.5870307 134.887745,56.4286689 144.923529,56.4286689 C154.959314,56.4286689 163.12402,64.5870307 163.12402,74.6150171 C163.12402,84.6430034 154.959314,92.8013652 144.923529,92.8013652 Z M144.923529,59.8279863 C136.758824,59.8279863 129.954902,66.4566553 129.954902,74.7849829 C129.954902,82.9433447 136.588725,89.7419795 144.923529,89.7419795 C153.088235,89.7419795 159.892157,83.1133106 159.892157,74.7849829 C159.892157,66.4566553 153.258333,59.8279863 144.923529,59.8279863 Z" fill="#DCDBDB"></path>
                        </g>
                    </g>
                    <path d="M593.982353,374.264846 L139.310294,374.264846 C137.609314,374.264846 136.078431,372.905119 136.078431,371.035495 C136.078431,369.335836 137.439216,367.806143 139.310294,367.806143 L593.982353,367.806143 C595.683333,367.806143 597.214216,369.16587 597.214216,371.035495 C597.044118,372.905119 595.683333,374.264846 593.982353,374.264846 Z" id="Shape" fill="#161616"></path>
                    <path d="M123.321078,374.264846 L72.4617647,374.264846 C70.7607843,374.264846 69.229902,372.905119 69.229902,371.035495 C69.229902,369.335836 70.5906863,367.806143 72.4617647,367.806143 L123.321078,367.806143 C125.022059,367.806143 126.552941,369.16587 126.552941,371.035495 C126.552941,372.905119 125.022059,374.264846 123.321078,374.264846 Z" id="Shape" fill="#161616"></path>
                    <path d="M662.191667,374.264846 L611.332353,374.264846 C609.631373,374.264846 608.10049,372.905119 608.10049,371.035495 C608.10049,369.335836 609.461275,367.806143 611.332353,367.806143 L662.191667,367.806143 C663.892647,367.806143 665.423529,369.16587 665.423529,371.035495 C665.423529,372.905119 664.062745,374.264846 662.191667,374.264846 Z" id="Shape" fill="#623BBB"></path>
                    <path d="M690.768137,374.264846 L679.881863,374.264846 C678.180882,374.264846 676.65,372.905119 676.65,371.035495 C676.65,369.335836 678.010784,367.806143 679.881863,367.806143 L690.768137,367.806143 C692.469118,367.806143 694,369.16587 694,371.035495 C694,372.905119 692.469118,374.264846 690.768137,374.264846 Z" id="Shape" fill="#623BBB"></path>
                    <path d="M53.9210784,374.264846 L36.5710784,374.264846 C34.870098,374.264846 33.3392157,372.905119 33.3392157,371.035495 C33.3392157,369.335836 34.7,367.806143 36.5710784,367.806143 L53.9210784,367.806143 C55.6220588,367.806143 57.1529412,369.16587 57.1529412,371.035495 C57.1529412,372.905119 55.7921569,374.264846 53.9210784,374.264846 Z" id="Shape" fill="#623BBB"></path>
                    <path d="M8.33480392,374.264846 L3.9122549,374.264846 C2.21127451,374.264846 0.680392157,372.905119 0.680392157,371.035495 C0.680392157,369.335836 2.04117647,367.806143 3.9122549,367.806143 L8.33480392,367.806143 C10.0357843,367.806143 11.5666667,369.16587 11.5666667,371.035495 C11.5666667,372.905119 10.2058824,374.264846 8.33480392,374.264846 Z" id="Shape" fill="#623BBB"></path>
                </g>
                <path d="M198.67451,116.426621 L174.180392,116.426621 C148.155392,116.426621 127.233333,137.502389 127.233333,163.337201 C127.233333,189.172014 148.155392,210.247782 174.010294,210.247782 C174.010294,210.247782 174.010294,210.247782 174.010294,210.247782 C179.283333,215.176792 186.427451,221.975427 186.427451,221.975427 C186.427451,221.975427 186.427451,221.975427 186.427451,221.975427 L198.67451,210.247782 C224.69951,210.247782 245.621569,189.172014 245.621569,163.337201 C245.621569,137.332423 224.529412,116.426621 198.67451,116.426621 Z" id="Shape" fill="#ECECEC"></path>
                <ellipse id="Oval" fill="#ECECEC" transform="translate(85.385831, 284.918089) rotate(-76.579368) translate(-85.385831, -284.918089) " cx="85.3858307" cy="284.918089" rx="39.973353" ry="39.9422931"></ellipse>
                <ellipse id="Oval" fill="#623BBB" cx="146.964706" cy="396.870307" rx="10.2058824" ry="10.1979522"></ellipse>
                <ellipse id="Oval" fill="#623BBB" cx="550.777451" cy="11.0477816" rx="10.5460784" ry="10.537884"></ellipse>
                <path d="M513.185784,323.784983 C512.67549,323.784983 512.335294,323.615017 511.995098,323.275085 L506.381863,317.32628 L462.836765,317.32628 C443.27549,317.32628 427.456373,301.519454 427.456373,281.973379 C427.456373,262.427304 443.27549,246.620478 462.836765,246.620478 L523.731863,246.620478 C543.293137,246.620478 559.112255,262.427304 559.112255,281.973379 C559.112255,301.519454 543.293137,317.32628 523.731863,317.32628 L519.139216,317.32628 L514.376471,323.105119 C514.206373,323.615017 513.696078,323.784983 513.185784,323.784983 C513.355882,323.784983 513.185784,323.784983 513.185784,323.784983 Z M462.836765,249.849829 C445.146569,249.849829 430.688235,264.296928 430.688235,281.973379 C430.688235,299.649829 445.146569,314.096928 462.836765,314.096928 L507.062255,314.096928 C507.572549,314.096928 507.912745,314.266894 508.252941,314.606826 L513.185784,319.705802 L517.268137,314.776792 C517.608333,314.43686 517.948529,314.266894 518.458824,314.266894 L523.731863,314.266894 C541.422059,314.266894 555.880392,299.819795 555.880392,282.143345 C555.880392,264.466894 541.422059,250.019795 523.731863,250.019795 L462.836765,250.019795 L462.836765,249.849829 Z" id="Shape" fill="#ECF6FD"></path>
                <g id="Group" transform="translate(153.088235, 311.037543)">
                    <path d="M63.1063725,0.679863481 L19.5612745,0.679863481 C8.84509804,0.679863481 0.170098039,9.34812287 0.170098039,20.0559727 C0.170098039,30.7638225 8.84509804,39.4320819 19.5612745,39.4320819 L63.1063725,39.4320819 C73.822549,39.4320819 82.497549,30.7638225 82.497549,20.0559727 C82.497549,9.34812287 73.822549,0.679863481 63.1063725,0.679863481 Z" id="Shape" fill="#623BBB"></path>
                    <polygon id="Shape" fill="#42BDE0" points="30.7877451 38.2423208 25.6848039 45.2109215 21.2622549 38.2423208"></polygon>
                </g>
                <path d="M522.371078,91.78157 L481.547549,91.78157 C462.326471,91.78157 446.847549,107.248464 446.847549,126.454608 C446.847549,145.660751 462.326471,161.127645 481.547549,161.127645 L485.8,161.127645 L494.645098,173.535154 L502.639706,161.127645 L522.371078,161.127645 C541.592157,161.127645 557.071078,145.660751 557.071078,126.454608 C557.071078,107.248464 541.592157,91.78157 522.371078,91.78157 Z" id="Shape" fill="#ECECEC"></path>
                <g id="Group" transform="translate(290.166667, 78.184300)" fill="#623BBB">
                    <path d="M16.35,19.0361775 C15.6696078,19.0361775 15.1593137,18.8662116 14.6490196,18.356314 L1.38137255,5.09897611 C0.360784314,4.07918089 0.360784314,2.71945392 1.38137255,1.6996587 C2.40196078,0.679863481 3.7627451,0.679863481 4.78333333,1.6996587 L18.0509804,14.9569966 C19.0715686,15.9767918 19.0715686,17.3365188 18.0509804,18.356314 C17.5406863,18.8662116 17.0303922,19.0361775 16.35,19.0361775 Z" id="Shape"></path>
                    <path d="M3.08235294,19.0361775 C2.40196078,19.0361775 1.89166667,18.8662116 1.38137255,18.356314 C0.360784314,17.3365188 0.360784314,15.9767918 1.38137255,14.9569966 L14.6490196,1.6996587 C15.6696078,0.679863481 17.0303922,0.679863481 18.0509804,1.6996587 C19.0715686,2.71945392 19.0715686,4.07918089 18.0509804,5.09897611 L4.78333333,18.356314 C4.44313725,18.8662116 3.7627451,19.0361775 3.08235294,19.0361775 Z" id="Shape"></path>
                </g>
                <path d="M212.282353,334.322867 L189.659314,334.322867 C187.788235,334.322867 186.427451,332.793174 186.427451,331.093515 C186.427451,329.223891 187.958333,327.864164 189.659314,327.864164 L212.282353,327.864164 C214.153431,327.864164 215.514216,329.393857 215.514216,331.093515 C215.514216,332.793174 213.983333,334.322867 212.282353,334.322867 Z" id="Shape" fill="#FFFFFF"></path>
                <path d="M529.004902,273.645051 L459.434804,273.645051 C457.563725,273.645051 455.862745,272.115358 455.862745,270.075768 C455.862745,268.036177 457.393627,266.506485 459.434804,266.506485 L529.004902,266.506485 C530.87598,266.506485 532.576961,268.036177 532.576961,270.075768 C532.576961,272.115358 531.046078,273.645051 529.004902,273.645051 Z" id="Shape" fill="#623BBB"></path>
                <path d="M495.665686,285.712628 L459.604902,285.712628 C457.733824,285.712628 456.032843,284.182935 456.032843,282.143345 C456.032843,280.27372 457.563725,278.574061 459.604902,278.574061 L495.665686,278.574061 C497.536765,278.574061 499.237745,280.103754 499.237745,282.143345 C499.237745,284.012969 497.536765,285.712628 495.665686,285.712628 Z" id="Shape" fill="#623BBB"></path>
                <path d="M515.737255,297.780205 L459.604902,297.780205 C457.733824,297.780205 456.032843,296.250512 456.032843,294.210922 C456.032843,292.341297 457.563725,290.641638 459.604902,290.641638 L515.737255,290.641638 C517.608333,290.641638 519.309314,292.171331 519.309314,294.210922 C519.139216,296.080546 517.608333,297.780205 515.737255,297.780205 Z" id="Shape" fill="#623BBB"></path>
                <path d="M179.113235,334.322867 L175.20098,334.322867 C173.329902,334.322867 171.969118,332.793174 171.969118,331.093515 C171.969118,329.223891 173.5,327.864164 175.20098,327.864164 L179.113235,327.864164 C180.984314,327.864164 182.345098,329.393857 182.345098,331.093515 C182.345098,332.793174 180.984314,334.322867 179.113235,334.322867 Z" id="Shape" fill="#FFFFFF"></path>
                <path d="M205.818627,158.578157 C205.818627,158.578157 205.818627,158.578157 205.818627,158.578157 C205.818627,156.028669 203.947549,153.989078 201.396078,153.649147 C201.055882,153.649147 200.545588,153.649147 200.205392,153.649147 L199.354902,153.649147 L199.354902,147.36041 C199.354902,146.000683 199.354902,144.47099 199.014706,143.111263 C198.504412,140.221843 196.803431,137.502389 194.592157,135.632765 C193.231373,134.612969 191.870588,133.76314 190.169608,133.253242 C188.808824,132.743345 187.107843,132.573379 185.747059,132.573379 C183.195588,132.743345 180.644118,133.593174 178.432843,135.122867 C177.242157,135.972696 176.221569,136.992491 175.371078,138.182253 C174.690686,139.202048 174.010294,140.391809 173.670098,141.58157 C173.159804,143.111263 172.989706,144.810922 172.989706,146.340614 L172.989706,153.479181 L172.819608,153.479181 C172.479412,153.479181 171.969118,153.479181 171.628922,153.479181 C169.927941,153.479181 168.397059,154.32901 167.376471,155.858703 C166.355882,157.388396 166.696078,159.088055 166.696078,160.787713 L166.696078,181.183618 C166.696078,182.543345 167.036275,183.733106 168.056863,184.752901 C169.077451,185.772696 170.438235,186.282594 171.79902,186.282594 L200.37549,186.282594 C201.055882,186.282594 201.736275,186.282594 202.416667,186.112628 C204.457843,185.432765 205.818627,183.56314 205.818627,181.353584 C205.818627,181.013652 205.818627,180.503754 205.818627,180.163823 L205.818627,158.578157 Z M190.339706,169.96587 C190.339706,171.325597 189.489216,172.685324 188.298529,173.365188 L188.298529,176.594539 C188.298529,177.614334 187.448039,178.464164 186.427451,178.464164 C185.406863,178.464164 184.556373,177.614334 184.556373,176.594539 L184.556373,173.195222 C183.87598,172.85529 183.365686,172.345392 183.02549,171.665529 C182.175,170.135836 182.345098,168.266212 183.365686,167.076451 C184.386275,165.886689 186.257353,165.376792 187.618137,165.886689 C189.14902,166.736519 190.169608,168.096246 190.339706,169.96587 C190.169608,169.795904 190.169608,169.795904 190.339706,169.96587 C190.169608,169.795904 190.169608,169.795904 190.339706,169.96587 C190.339706,169.795904 190.339706,169.96587 190.339706,169.96587 Z M194.422059,148.380205 L194.422059,153.649147 L178.092647,153.649147 L178.092647,146.340614 C178.092647,145.660751 178.092647,145.150853 178.092647,144.47099 C178.262745,143.791126 178.432843,143.111263 178.602941,142.431399 C178.943137,141.751536 179.283333,141.241638 179.623529,140.561775 C179.623529,140.561775 179.453431,140.731741 179.453431,140.731741 C179.623529,140.561775 179.793627,140.391809 179.793627,140.221843 C179.793627,140.391809 179.623529,140.391809 179.623529,140.561775 C180.133824,140.051877 180.644118,139.54198 181.154412,139.032082 C180.984314,139.032082 180.984314,139.202048 180.814216,139.202048 C180.984314,139.032082 181.154412,138.862116 181.32451,138.862116 C181.32451,138.862116 181.154412,139.032082 181.154412,139.032082 C181.664706,138.69215 182.345098,138.182253 183.02549,138.012287 C183.705882,137.672355 184.386275,137.502389 185.066667,137.502389 C185.747059,137.502389 186.597549,137.502389 187.277941,137.502389 C187.958333,137.672355 188.638725,137.842321 189.319118,138.012287 C189.99951,138.352218 190.509804,138.69215 191.190196,139.032082 C191.190196,139.032082 191.020098,138.862116 191.020098,138.862116 C191.190196,139.032082 191.360294,139.202048 191.530392,139.202048 C191.360294,139.202048 191.360294,139.032082 191.190196,139.032082 C191.70049,139.54198 192.210784,140.051877 192.721078,140.561775 C192.721078,140.391809 192.55098,140.391809 192.55098,140.221843 C192.721078,140.391809 192.891176,140.561775 192.891176,140.731741 C192.891176,140.731741 192.721078,140.561775 192.721078,140.561775 C193.061275,141.071672 193.571569,141.751536 193.741667,142.431399 C193.911765,143.111263 194.251961,143.791126 194.251961,144.47099 C194.592157,145.830717 194.422059,147.020478 194.422059,148.380205 Z" id="Shape" fill="#623BBB"></path>
                <g id="Group" transform="translate(69.740196, 265.146758)" fill="#623BBB">
                    <path d="M31.4681373,33.8232082 C31.4681373,26.3447099 25.3446078,20.2259386 17.8602941,20.2259386 L13.9480392,20.2259386 C6.46372549,20.2259386 0.340196078,26.3447099 0.340196078,33.8232082 L0.340196078,37.7324232 L31.4681373,37.7324232 L31.4681373,33.8232082 Z" id="Shape"></path>
                    <path d="M15.9892157,0.679863481 C20.2416667,0.679863481 23.8137255,4.07918089 23.8137255,8.49829352 C23.8137255,12.7474403 20.4117647,16.3167235 15.9892157,16.3167235 C11.7367647,16.3167235 8.16470588,12.9174061 8.16470588,8.49829352 C8.16470588,4.24914676 11.7367647,0.679863481 15.9892157,0.679863481 Z" id="Shape"></path>
                </g>
                <g id="Group" transform="translate(472.872549, 111.561892)" fill="#623BBB">
                    <path d="M14.1181373,0.509897611 C19.3911765,0.509897611 23.9838235,3.39931741 26.3651961,7.81843003 L54.6014706,7.81843003 L61.2352941,13.7672355 L52.5602941,21.0757679 L48.6480392,17.1665529 L44.7357843,21.0757679 L40.8235294,17.1665529 L36.9112745,21.0757679 L26.5352941,21.0757679 C24.1539216,25.4948805 19.5612745,28.3843003 14.2882353,28.3843003 C6.63382353,28.3843003 0.340196078,22.0955631 0.340196078,14.447099 C0.340196078,6.79863481 6.46372549,0.509897611 14.1181373,0.509897611 Z M9.5254902,10.537884 C7.31421569,10.537884 5.61323529,12.2375427 5.61323529,14.447099 C5.61323529,16.6566553 7.31421569,18.356314 9.5254902,18.356314 C11.7367647,18.356314 13.4377451,16.6566553 13.4377451,14.447099 C13.4377451,12.2375427 11.7367647,10.537884 9.5254902,10.537884 Z" id="Shape"></path>
                </g>
                <path d="M583.436275,413.187031 C583.436275,398.569966 571.69951,386.842321 557.071078,386.842321 L555.029902,386.842321 C540.401471,386.842321 528.664706,398.739932 528.664706,413.187031 C528.664706,426.104437 537.85,436.812287 550.097059,439.021843 L555.540196,447.690102 L561.833824,439.191809 C574.080882,436.812287 583.436275,426.104437 583.436275,413.187031 Z" id="Shape" fill="#623BBB"></path>
                <g id="Group" transform="translate(551.117647, 397.720137)" fill="#ECECEC">
                    <path d="M3.57205882,19.716041 L6.12352941,19.716041 C6.63382353,19.716041 6.97401961,19.3761092 6.97401961,18.8662116 L8.50490196,1.35972696 C8.50490196,0.849829352 8.16470588,0.509897611 7.65441176,0.509897611 L2.04117647,0.509897611 C1.53088235,0.509897611 1.19068627,0.849829352 1.19068627,1.35972696 L2.72156863,18.8662116 C2.72156863,19.3761092 3.06176471,19.716041 3.57205882,19.716041 Z" id="Shape"></path>
                    <path d="M4.7627451,22.4354949 C2.72156863,22.4354949 1.02058824,24.1351536 1.02058824,26.174744 C1.02058824,28.2143345 2.72156863,29.9139932 4.7627451,29.9139932 C6.80392157,29.9139932 8.50490196,28.2143345 8.50490196,26.174744 C8.675,24.1351536 6.97401961,22.4354949 4.7627451,22.4354949 Z" id="Shape"></path>
                </g>
                <g id="Group" transform="translate(583.436275, 428.313993)" fill="#ECECEC">
                    <path d="M16.6696078,18.5262799 C15.9892157,18.5262799 15.4789216,18.356314 14.9686275,17.8464164 L1.70098039,4.5890785 C0.680392157,3.56928328 0.680392157,2.20955631 1.70098039,1.18976109 C2.72156863,0.16996587 4.08235294,0.16996587 5.10294118,1.18976109 L18.3705882,14.447099 C19.3911765,15.4668942 19.3911765,16.8266212 18.3705882,17.8464164 C17.8602941,18.356314 17.35,18.5262799 16.6696078,18.5262799 Z" id="Shape"></path>
                    <path d="M3.40196078,18.5262799 C2.72156863,18.5262799 2.21127451,18.356314 1.70098039,17.8464164 C0.680392157,16.8266212 0.680392157,15.4668942 1.70098039,14.447099 L14.9686275,1.18976109 C15.9892157,0.16996587 17.35,0.16996587 18.3705882,1.18976109 C19.3911765,2.20955631 19.3911765,3.56928328 18.3705882,4.5890785 L5.10294118,17.8464164 C4.59264706,18.356314 4.08235294,18.5262799 3.40196078,18.5262799 Z" id="Shape"></path>
                </g>
            </g>
        </g>
    </g>
</svg>